<svg xmlns="http://www.w3.org/2000/svg" viewBox="0 0 512 512"  xmlns:v="https://vecta.io/nano"><path d="M462 512H50c-27.6 0-50-22.4-50-50V50C0 22.4 22.4 0 50 0h412c27.6 0 50 22.4 50 50v412c0 27.6-22.4 50-50 50z" fill="#111827"/><path d="M161.8 79.6c28.9 0 54.6-4.7 56.7-4.7 16.8 0 13.1 15.2 22.6 44.1l86.1 268.8 15.2-91.3 18.9-100.8c5.8-32 11.5-61.4 11.5-67.2 0-12.6-7.9-18.9-28.3-18.9-8.4 0-19.4 1-25.7 1-12.1 0-18.9-6.3-18.9-15.2 0-8.4 10.5-20.5 25.2-20.5 11 0 40.9 4.7 70.3 4.7 27.3 0 56.2-4.7 67.2-4.7 13.1 0 18.4 5.2 18.4 15.2 0 9.4-10 19.9-26.2 19.9-3.2 0-14.2-.5-16.8-.5-16.8 0-21 11-36.2 89.2l-38.8 199c-4.7 24.7-14.7 39.9-37.3 39.9-10 0-17.3-.5-22.6-4.2-10-6.8-12.1-22-19.4-44.6l-90.8-286.1c-2.1 16.8-4.7 35.7-7.9 52.5l-36.8 202.1c-2.1 12.1-3.7 21.5-3.7 27.3 0 12.1 6.3 17.3 23.6 17.3 6.8 0 16.3-1 23.1-1 11 0 19.9 4.7 19.9 15.2 0 13.1-8.4 20.5-29.9 20.5-12.1 0-38.8-4.7-72.4-4.7-29.9 0-48.3 3.7-58.3 3.7-11 0-19.4-3.7-19.4-15.7 0-10.5 8.4-17.9 29.4-17.9 4.7 0 9.5.5 14.2.5 20.5 0 26.8-18.9 32.5-47.2l38.3-199.5c2.1-13.1 3.2-23.1 3.2-27.8 0-12.1-6.8-18.4-19.4-18.4-6.8 0-13.7.5-20.5.5-17.8 0-22.6-5.2-22.6-14.7s11.5-21 28.3-21c17.3 0 31 5.2 47.3 5.2z" fill="#e5e7eb"/></svg>